<svg width="32" height="32" viewBox="0 0 32 32" fill="none" xmlns="http://www.w3.org/2000/svg">
<path opacity="0.1" fill-rule="evenodd" clip-rule="evenodd" d="M0 16C0 7.16344 7.16344 0 16 0C24.8366 0 32 7.16344 32 16C32 24.8366 24.8366 32 16 32C7.16344 32 0 24.8366 0 16Z" fill="white"/>
<path fill-rule="evenodd" clip-rule="evenodd" d="M16.0009 7.4668C13.6834 7.4668 13.3925 7.47693 12.4823 7.51835C11.5739 7.55995 10.9538 7.70378 10.4112 7.9148C9.84993 8.13276 9.37384 8.42432 8.89952 8.89881C8.42485 9.37313 8.13329 9.84922 7.91462 10.4103C7.70307 10.9531 7.55906 11.5733 7.51818 12.4814C7.47746 13.3917 7.4668 13.6827 7.4668 16.0002C7.4668 18.3178 7.47711 18.6077 7.51835 19.5179C7.56013 20.4264 7.70395 21.0465 7.9148 21.5891C8.13294 22.1503 8.4245 22.6264 8.89899 23.1007C9.37313 23.5754 9.84922 23.8677 10.4101 24.0856C10.9531 24.2967 11.5733 24.4405 12.4816 24.4821C13.3918 24.5235 13.6825 24.5336 15.9999 24.5336C18.3176 24.5336 18.6075 24.5235 19.5178 24.4821C20.4262 24.4405 21.047 24.2967 21.59 24.0856C22.151 23.8677 22.6264 23.5754 23.1006 23.1007C23.5752 22.6264 23.8668 22.1503 24.0855 21.5893C24.2952 21.0465 24.4392 20.4262 24.4819 19.5181C24.5228 18.6079 24.5335 18.3178 24.5335 16.0002C24.5335 13.6827 24.5228 13.3918 24.4819 12.4816C24.4392 11.5731 24.2952 10.9531 24.0855 10.4105C23.8668 9.84922 23.5752 9.37313 23.1006 8.89881C22.6259 8.42414 22.1512 8.13258 21.5894 7.9148C21.0454 7.70378 20.425 7.55995 19.5165 7.51835C18.6063 7.47693 18.3165 7.4668 15.9983 7.4668H16.0009ZM15.2354 9.00457C15.4626 9.00421 15.7161 9.00457 16.0009 9.00457C18.2793 9.00457 18.5494 9.01274 19.4491 9.05363C20.2811 9.09168 20.7327 9.2307 21.0335 9.3475C21.4317 9.50217 21.7156 9.68706 22.0141 9.98573C22.3128 10.2844 22.4977 10.5688 22.6527 10.9671C22.7695 11.2675 22.9087 11.7191 22.9466 12.5511C22.9875 13.4507 22.9963 13.7209 22.9963 15.9982C22.9963 18.2756 22.9875 18.5458 22.9466 19.4454C22.9085 20.2774 22.7695 20.729 22.6527 21.0294C22.498 21.4276 22.3128 21.7112 22.0141 22.0097C21.7154 22.3083 21.4319 22.4932 21.0335 22.6479C20.733 22.7652 20.2811 22.9039 19.4491 22.942C18.5495 22.9828 18.2793 22.9917 16.0009 22.9917C13.7223 22.9917 13.4522 22.9828 12.5527 22.942C11.7207 22.9036 11.2691 22.7645 10.9681 22.6477C10.5699 22.4931 10.2855 22.3082 9.98679 22.0095C9.68812 21.7108 9.50323 21.4271 9.3482 21.0287C9.2314 20.7282 9.0922 20.2767 9.05433 19.4447C9.01344 18.5451 9.00527 18.2749 9.00527 15.9961C9.00527 13.7173 9.01344 13.4485 9.05433 12.549C9.09238 11.7169 9.2314 11.2654 9.3482 10.9646C9.50287 10.5664 9.68812 10.2819 9.98679 9.98324C10.2855 9.68457 10.5699 9.49968 10.9681 9.34466C11.2689 9.22732 11.7207 9.08866 12.5527 9.05043C13.3399 9.01488 13.645 9.00421 15.2354 9.00243V9.00457ZM20.556 10.4215C19.9906 10.4215 19.532 10.8796 19.532 11.4451C19.532 12.0105 19.9906 12.4691 20.556 12.4691C21.1213 12.4691 21.58 12.0105 21.58 11.4451C21.58 10.8798 21.1213 10.4215 20.556 10.4215ZM16.0009 11.6179C13.5808 11.6179 11.6187 13.5801 11.6187 16.0002C11.6187 18.4203 13.5808 20.3816 16.0009 20.3816C18.4211 20.3816 20.3825 18.4203 20.3825 16.0002C20.3825 13.5801 18.4211 11.6179 16.0009 11.6179ZM16.0009 13.1557C17.5718 13.1557 18.8454 14.4292 18.8454 16.0002C18.8454 17.5711 17.5718 18.8447 16.0009 18.8447C14.4299 18.8447 13.1564 17.5711 13.1564 16.0002C13.1564 14.4292 14.4299 13.1557 16.0009 13.1557Z" fill="white"/>
</svg>
