<svg width="18" height="18" viewBox="0 0 18 18" fill="none" xmlns="http://www.w3.org/2000/svg">
<path fill-rule="evenodd" clip-rule="evenodd" d="M5.1855 15.517C5.53716 15.517 5.823 15.8028 5.823 16.1545C5.823 16.5061 5.53716 16.7911 5.1855 16.7911C4.83383 16.7911 4.54883 16.5061 4.54883 16.1545C4.54883 15.8028 4.83383 15.517 5.1855 15.517Z" stroke="#51267D" stroke-width="1.8" stroke-linecap="round" stroke-linejoin="round"/>
<path fill-rule="evenodd" clip-rule="evenodd" d="M14.5623 15.517C14.914 15.517 15.1998 15.8028 15.1998 16.1545C15.1998 16.5061 14.914 16.7911 14.5623 16.7911C14.2106 16.7911 13.9248 16.5061 13.9248 16.1545C13.9248 15.8028 14.2106 15.517 14.5623 15.517Z" stroke="#51267D" stroke-width="1.8" stroke-linecap="round" stroke-linejoin="round"/>
<path d="M1.29199 1.70837L3.02533 2.00837L3.82783 11.5692C3.89283 12.3484 4.54366 12.9467 5.32533 12.9467H14.4187C15.1653 12.9467 15.7987 12.3984 15.9062 11.6584L16.697 6.19337C16.7945 5.51921 16.272 4.91587 15.5912 4.91587H3.30366" stroke="#51267D" stroke-width="1.8" stroke-linecap="round" stroke-linejoin="round"/>
</svg>
